<svg width="240" height="135" viewBox="0 0 240 135" fill="none" xmlns="http://www.w3.org/2000/svg">
<path d="M0 0V135H240V0H0Z" fill="#141416"/>
<mask id="mask0_108_74" style="mask-type:alpha" maskUnits="userSpaceOnUse" x="52" y="50" width="139" height="35">
<path d="M55.6334 56.3308C55.6334 54.1455 57.4049 52.374 59.5902 52.374C60.0273 52.374 60.3816 52.7283 60.3816 53.1654V79.9724C60.3816 80.464 59.983 80.8626 59.4913 80.8626H55.6334V56.3308Z" fill="black"/>
<path d="M72.2519 53.9567C72.2519 51.7715 74.0234 50 76.2086 50C76.6457 50 77 50.3543 77 50.7913V74.5318C77 76.7171 75.2285 78.4886 73.0432 78.4886C72.6062 78.4886 72.2519 78.1343 72.2519 77.6972V53.9567Z" fill="black"/>
<path d="M59.5545 77.4456C60.9452 78.8363 60.5694 81.4668 58.7151 83.321C56.8609 85.1753 54.2303 85.5511 52.8396 84.1604C51.4489 82.7697 51.8247 80.1392 53.679 78.2849C55.5332 76.4307 58.1638 76.0549 59.5545 77.4456Z" fill="black"/>
<path d="M58.0075 66.3113L74.0215 61.8702L74.9732 65.3018L58.9592 69.7429L58.0075 66.3113Z" fill="black"/>
<path d="M109.902 57.1058L109.453 57.1913L109.005 57.2941L108.556 57.4169L108.108 57.5645L107.66 57.7354L107.435 57.8308C107.207 57.9379 106.981 58.0477 106.763 58.1775C106.449 58.3636 106.15 58.5748 105.866 58.8093C105.551 59.0695 105.256 59.3563 104.973 59.6546C104.618 60.0273 104.28 60.4193 103.986 60.8488C103.632 61.3662 103.344 61.9386 103.122 62.5342C102.976 62.9255 102.862 63.3309 102.762 63.7381C102.665 64.1344 102.583 64.5341 102.542 64.9419C102.51 65.2617 102.507 65.5838 102.504 65.905L102.503 66.8681V70.2389L102.504 71.4427L102.516 71.924L102.536 72.1638L102.638 72.6323L102.734 72.8517L103.023 73.2234L103.209 73.3612L103.413 73.4596L103.627 73.5189H104.063L104.47 73.3612L104.803 73.0515L105.027 72.6323L105.142 72.1638L105.169 71.924C105.185 71.683 105.189 71.4434 105.193 71.2019L105.193 69.7573V67.1088L105.194 66.1458C105.199 65.8243 105.199 65.5024 105.235 65.1827C105.263 64.9381 105.307 64.6973 105.37 64.4604C105.483 64.0412 105.649 63.6379 105.845 63.2565C106.106 62.7478 106.422 62.2686 106.804 61.8562C107.128 61.5071 107.499 61.2093 107.884 60.9422C108.239 60.6959 108.609 60.4829 109.005 60.3225C109.296 60.2043 109.599 60.1236 109.902 60.0468L110.126 59.9965L110.35 59.9534L110.797 59.8718L111.018 59.8186L111.438 59.6392L111.624 59.4998L111.91 59.1278L111.998 58.9087L112.048 58.6783L112.033 58.2134L111.878 57.786L111.753 57.6018L111.42 57.3141L111.013 57.1378L110.795 57.0887L110.573 57.0637L110.35 57.0603L109.902 57.1058ZM126.044 59.1634L125.897 58.8401L125.821 58.7515L125.683 58.5675L125.338 58.2478L124.918 57.9425L124.697 57.8036C124.477 57.6788 124.257 57.5614 124.026 57.4614C123.595 57.2746 123.141 57.1417 122.681 57.069C122.385 57.0223 122.083 56.9984 121.784 57.0035C121.559 57.0073 121.335 57.0131 121.111 57.0384C120.885 57.0639 120.661 57.1061 120.439 57.1578C120.058 57.2464 119.675 57.361 119.318 57.5293L118.87 57.7701L118.646 57.915L118.206 58.2415L117.787 58.6024C117.197 59.1591 116.715 59.8424 116.384 60.6081C116.283 60.8421 116.199 61.0841 116.129 61.3304C116.06 61.5678 116.008 61.81 115.958 62.0527C115.877 62.4495 115.807 62.852 115.769 63.2565C115.732 63.6567 115.733 64.0588 115.731 64.4604L115.731 65.6642V69.2758V70.7204L115.734 71.4427L115.755 71.924L115.782 72.1638L115.897 72.6333L116.121 73.0602L116.276 73.2415L116.652 73.5104L117.078 73.6296L117.515 73.5896L117.724 73.5104L117.921 73.3934L118.099 73.2415L118.381 72.8551L118.548 72.4012L118.621 71.924C118.636 71.683 118.641 71.4434 118.644 71.2019L118.645 70.4796V69.2758V65.4235L118.646 63.9788C118.652 63.4939 118.655 63.0018 118.792 62.5342C118.947 62.0019 119.234 61.5194 119.59 61.1158L120 60.7123L120.218 60.5452L120.663 60.2994L121.111 60.1622L121.336 60.1251L121.56 60.1046L121.784 60.0976L122.008 60.1046L122.456 60.1622L122.905 60.2994L123.35 60.5452L123.568 60.7123L123.778 60.9037L124.162 61.341C124.432 61.6947 124.648 62.0965 124.776 62.5342C124.913 63.0018 124.916 63.4939 124.922 63.9788L124.923 65.1827V69.9981V70.7204L124.932 71.6835L124.947 71.924L125.02 72.4022L125.187 72.8608L125.468 73.261L125.646 73.4213L126.053 73.6262L126.489 73.6575L126.704 73.6091L127.102 73.3994L127.274 73.2441L127.542 72.8553L127.709 72.4012L127.795 71.924L127.828 71.4427L127.837 70.4796V65.1827L127.838 63.7381C127.844 63.2544 127.84 62.7528 128.004 62.2934C128.164 61.842 128.443 61.4553 128.758 61.1158L129.186 60.7116L129.407 60.5426L129.631 60.402L130.079 60.1995L130.527 60.0916L130.752 60.0683L130.976 60.0649L131.2 60.0793L131.424 60.1116L131.873 60.2322C132.28 60.3829 132.648 60.6256 132.97 60.9317C133.424 61.3629 133.786 61.9104 133.968 62.5342C134.105 63.0018 134.108 63.4942 134.114 63.9788L134.115 65.4235V69.2758V70.4796L134.116 71.2019C134.123 71.76 134.115 72.3593 134.379 72.8608L134.66 73.261L134.838 73.4213L135.036 73.5439L135.245 73.6262L135.681 73.6575L136.103 73.5225L136.466 73.2441L136.734 72.8553L136.829 72.6333L136.901 72.4012L136.987 71.924L137.02 71.4427L137.026 71.2019L137.029 70.7204L137.029 69.7573V66.8681V64.9419C137.028 64.541 137.035 64.1385 137.009 63.7381C136.983 63.3333 136.922 62.9341 136.86 62.5342C136.784 62.0464 136.712 61.5552 136.551 61.0896C136.337 60.4708 136.002 59.9108 135.61 59.4052L135.215 58.933L135.002 58.7072L134.784 58.4924L134.339 58.1132L133.89 57.8072C133.604 57.6307 133.302 57.4944 132.994 57.3695L132.545 57.2197C132.325 57.1508 132.098 57.1097 131.873 57.069C131.578 57.0158 131.275 57.0049 130.976 57.0011C130.677 56.997 130.376 57.0032 130.079 57.0408C129.852 57.0699 129.628 57.1174 129.407 57.1805C128.938 57.3138 128.486 57.5134 128.061 57.7634C127.603 58.033 127.181 58.365 126.752 58.6831L126.528 58.842L126.418 58.9263L126.044 59.1634ZM165.726 57.3492C165.501 57.3928 165.274 57.4484 165.053 57.5166C164.827 57.5866 164.601 57.6557 164.381 57.7475C164.149 57.8438 163.924 57.9562 163.708 58.0879C163.218 58.3874 162.776 58.7703 162.367 59.1858C161.943 59.6156 161.551 60.081 161.235 60.6081L160.979 61.0896L160.867 61.3304L160.674 61.8119C160.558 62.1264 160.463 62.449 160.381 62.775C160.282 63.1703 160.201 63.5712 160.16 63.9788C160.136 64.2189 160.129 64.4601 160.125 64.7011L160.121 65.6642V68.0719V70.7204C160.121 71.0411 160.116 71.3628 160.125 71.6835L160.154 72.1638L160.193 72.4012L160.352 72.8517L160.641 73.2234L160.827 73.3612L161.031 73.4606L161.466 73.5478L161.902 73.5006L162.106 73.4298L162.452 73.1902L162.676 72.8324L162.778 72.3952L162.798 72.1614L162.81 71.6832L162.812 71.2019V70.4796V69.7573V66.6273L162.812 65.6642C162.815 65.343 162.818 65.0209 162.851 64.7011L162.916 64.2196L163.02 63.7381L163.086 63.4973C163.155 63.25 163.247 63.0035 163.359 62.775L163.63 62.2944L163.98 61.8223L164.18 61.5964L164.391 61.3819L164.608 61.1845L165.054 60.8476L165.502 60.5888L165.726 60.4836C165.947 60.3943 166.168 60.3102 166.399 60.2541L166.847 60.1747L167.071 60.1585L167.52 60.1747L167.744 60.2067L168.192 60.3191C168.588 60.4467 168.965 60.6418 169.312 60.8808L169.752 61.2177L169.962 61.4096L170.162 61.6157L170.515 62.0623L170.665 62.2971L170.8 62.5352L171.024 63.0158L171.191 63.4973L171.303 63.9788L171.385 64.4604C171.45 64.8596 171.509 65.2597 171.535 65.6642C171.556 65.9845 171.554 66.3064 171.555 66.6273L171.555 67.8312V69.7573V70.4796V71.2019L171.556 71.6835L171.568 72.1638L171.588 72.4012L171.69 72.8551L171.915 73.2415L172.261 73.5104L172.465 73.5896L172.898 73.6296L173.324 73.5104L173.522 73.3934L173.7 73.2415L173.981 72.8551L174.079 72.6333L174.194 72.1638L174.221 71.924L174.242 71.4427L174.245 70.2389V66.8681L174.245 65.905C174.244 65.584 174.246 65.2624 174.226 64.9419C174.194 64.4563 174.115 63.9767 174.039 63.4973C174.001 63.2568 173.97 63.0131 173.92 62.775L173.813 62.2934C173.746 62.0483 173.676 61.8069 173.583 61.5711C173.415 61.1457 173.198 60.7434 172.948 60.3675C172.611 59.8617 172.218 59.4035 171.776 59.0019C171.43 58.6867 171.052 58.4134 170.658 58.1715C170.163 57.8674 169.64 57.6208 169.089 57.4605C168.795 57.375 168.495 57.3136 168.192 57.2792C167.894 57.245 167.595 57.2407 167.295 57.2385L166.623 57.2467L166.174 57.2792L165.726 57.3492ZM95.5531 71.9242L95.608 72.3266L95.7197 72.6805C95.8213 72.9022 95.9331 73.1173 96.0988 73.2925L96.4743 73.5923L96.6837 73.679L97.1191 73.7103L97.3337 73.6575L97.5377 73.562L97.7238 73.4298L98.013 73.0732L98.1722 72.636L98.2103 72.4022L98.2302 72.1641L98.2423 71.6835L98.2435 70.7204V69.035V66.1458L98.2347 64.9419L98.2044 64.4604L98.1392 63.9788C98.0986 63.7366 98.0468 63.493 97.9834 63.2565L97.8486 62.775L97.7684 62.5342L97.572 62.0527C97.3781 61.6304 97.1357 61.2367 96.8884 60.8491C96.677 60.5178 96.4429 60.1987 96.1844 59.9081C95.8576 59.541 95.4901 59.2258 95.1045 58.9333L94.6563 58.6123L94.2079 58.3253L93.7596 58.087C93.4699 57.9497 93.1679 57.8464 92.8628 57.7573C92.641 57.6923 92.4164 57.6336 92.1902 57.59L91.7418 57.5199L91.2934 57.4874C90.9946 57.4785 90.6955 57.4756 90.3966 57.479L89.7241 57.4997L89.4999 57.5199L89.0515 57.59C88.8253 57.6386 88.6022 57.6952 88.3789 57.7573C88.0738 57.8421 87.7702 57.9497 87.4821 58.087C87.001 58.3162 86.5609 58.6272 86.1378 58.9612C85.7648 59.2554 85.4036 59.5675 85.0834 59.9276L84.7202 60.3767L84.3929 60.8498C84.2459 61.085 84.0974 61.3207 83.9732 61.5711L83.7441 62.0527L83.5508 62.5342L83.3903 63.0158L83.258 63.4973C83.1816 63.8158 83.1092 64.1346 83.0655 64.4604C83.0119 64.8593 83 65.2617 83 65.6642C83 65.9055 83.0067 66.1458 83.0184 66.3865L83.0372 66.6273L83.1025 67.1088C83.1477 67.3515 83.1977 67.5921 83.258 67.8312C83.3616 68.2419 83.4854 68.6471 83.6493 69.035C83.8279 69.4576 84.0454 69.8611 84.2961 70.2389C84.5801 70.6665 84.9036 71.0618 85.2491 71.4331C85.7199 71.9384 86.232 72.401 86.8095 72.76C87.0949 72.9372 87.3985 73.09 87.7063 73.2172C87.9287 73.3092 88.1507 73.3987 88.3789 73.4724C88.6004 73.5439 88.8253 73.6017 89.0515 73.6532C89.4951 73.7546 89.9431 73.8242 90.3966 73.84C90.6955 73.8504 90.9959 73.841 91.2934 73.8092C91.5947 73.7772 91.8934 73.7197 92.1902 73.6559C92.4915 73.5911 92.7931 73.5205 93.087 73.423C93.3952 73.321 93.6945 73.1917 93.9833 73.0373C94.2822 72.8779 94.566 72.6906 94.8447 72.4939L95.1785 72.2406L95.5531 71.9242ZM146.67 57.6028C146.441 57.655 146.219 57.7304 145.997 57.8055L145.773 57.8874L145.324 58.0715L144.876 58.2911L144.428 58.5565C143.944 58.8702 143.498 59.246 143.091 59.6674C142.612 60.1648 142.192 60.7207 141.842 61.3304C141.539 61.8586 141.287 62.423 141.114 63.0158C141 63.408 140.921 63.811 140.879 64.2196C140.847 64.5393 140.844 64.8615 140.841 65.1827L140.841 65.905C140.842 66.3059 140.837 66.7101 140.882 67.1088L140.957 67.5904L141.011 67.8312L141.146 68.3127C141.243 68.6425 141.367 68.9666 141.511 69.2758C141.666 69.6085 141.846 69.9321 142.043 70.2386L142.356 70.7168L142.526 70.9518L142.899 71.4008C143.227 71.7574 143.596 72.0687 143.979 72.3526C144.468 72.7154 144.993 73.0262 145.549 73.2562C145.768 73.3472 145.992 73.4242 146.221 73.4856C146.516 73.5651 146.818 73.6152 147.118 73.6686C147.489 73.7351 147.862 73.8092 148.239 73.8193L148.687 73.8061L148.911 73.7806L149.36 73.7083L149.808 73.6279L150.257 73.54L150.705 73.4206L151.153 73.2562L151.602 73.0501C151.83 72.9321 152.055 72.811 152.274 72.6754C152.75 72.3817 153.2 72.0441 153.599 71.6389C154.012 71.2205 154.37 70.7399 154.691 70.2389C154.841 70.0043 154.978 69.7633 155.11 69.5165L155.334 69.035L155.429 68.7942L155.588 68.3127C155.702 67.9205 155.781 67.5174 155.822 67.1088C155.847 66.869 155.853 66.6275 155.858 66.3865L155.862 65.4235C155.861 64.9412 155.864 64.4594 155.82 63.9788C155.79 63.6507 155.711 63.3276 155.614 63.0158L155.44 62.5342L155.34 62.2934C155.231 62.0488 155.118 61.8066 154.992 61.5711L154.717 61.0896L154.564 60.8488L154.218 60.3683L154.026 60.1301L153.611 59.6674L153.17 59.2427L152.947 59.05L152.723 58.8719L152.274 58.5565L151.826 58.2911L151.378 58.0715L150.929 57.8874L150.705 57.8055C150.483 57.7304 150.261 57.655 150.032 57.6028L149.584 57.5223L149.136 57.4877C148.837 57.4785 148.538 57.4771 148.239 57.4783L147.566 57.4877L147.118 57.5223L146.67 57.6028ZM184.11 69.035L183.962 68.6327L183.908 68.5152L183.808 68.2742L183.044 66.6273L181.813 63.9788L180.13 60.3673L179.567 59.1646L179.323 58.6951L179.185 58.4734L179.035 58.2683L178.682 57.935L178.482 57.818L178.272 57.7388L177.842 57.6988L177.435 57.818L177.103 58.087L176.979 58.2683L176.832 58.6951L176.81 58.9272L176.864 59.4045L177.016 59.8857C177.114 60.1304 177.221 60.3687 177.33 60.6081C177.513 61.0128 177.702 61.4158 177.902 61.8119L178.536 63.0158C178.903 63.7258 179.232 64.4572 179.571 65.1827L180.025 66.1458L180.394 66.8681L180.778 67.5904C180.983 67.9867 181.174 68.3897 181.364 68.7942L181.923 69.9981L182.26 70.7204C182.464 71.1762 182.696 71.6474 182.709 72.165C182.718 72.4937 182.634 72.8233 182.527 73.1281C182.384 73.5386 182.21 73.9332 182.04 74.3319L181.739 75.0543L181.351 76.0173L181.04 76.7396L180.653 77.7027L180.464 78.1843L180.293 78.6658L180.23 78.9063L180.195 79.1461L180.233 79.6156L180.438 80.0425L180.78 80.3757L181.196 80.572L181.621 80.6119L182.005 80.4928L182.324 80.2238L182.462 80.0425L182.706 79.6156L182.931 79.1461L183.244 78.425L183.533 77.7027L183.73 77.2212L184.041 76.4989L184.527 75.295L184.938 74.3319L185.424 73.1281L185.935 71.9242L186.321 70.9612L186.832 69.7573L187.317 68.5535L187.729 67.5904L188.214 66.3865L188.625 65.4235L189.011 64.4604L189.422 63.4973L189.908 62.2934L190.319 61.3304C190.485 60.9343 190.642 60.5344 190.781 60.1265L190.922 59.645L190.971 59.4045L191 59.1646L190.979 58.6951L190.921 58.4732L190.7 58.0843L190.354 57.806L189.936 57.6709L189.5 57.7022L189.291 57.7846L189.093 57.9071L188.751 58.2562L188.611 58.4676L188.488 58.6925L188.279 59.1644L187.792 60.3673L187.404 61.3304L186.993 62.2934L186.705 63.0158L186.404 63.7381L186.096 64.4604L185.711 65.4235L185.2 66.6273L184.912 67.3491L184.716 67.8251L184.514 68.2742L184.336 68.6327L184.11 69.035Z" fill="#7AA2BF"/>
</mask>
<g mask="url(#mask0_108_74)">
<rect x="47" y="46" width="147" height="44" fill="url(#paint0_linear_108_74)"/>
<path d="M148.239 60.2987C148.015 60.3035 147.788 60.3225 147.566 60.3584C147.34 60.395 147.115 60.4313 146.894 60.4923C146.582 60.5782 146.282 60.6986 145.998 60.8609L145.557 61.1496L145.345 61.3157L145.139 61.4951L144.757 61.8844L144.414 62.3151L144.259 62.5436L143.99 63.0167C143.801 63.3969 143.673 63.8048 143.567 64.2196C143.446 64.6894 143.347 65.175 143.347 65.6642C143.347 66.0714 143.417 66.4744 143.509 66.8681C143.605 67.2812 143.727 67.6918 143.908 68.0719C144.116 68.5077 144.386 68.9055 144.694 69.2654C144.952 69.5671 145.236 69.8466 145.549 70.0819C145.761 70.241 145.986 70.3734 146.221 70.4868L146.67 70.6662L147.118 70.7972L147.566 70.8887L147.79 70.9193C148.015 70.939 148.238 70.9532 148.463 70.9482C148.764 70.9414 149.064 70.9087 149.36 70.8485C149.588 70.8023 149.81 70.7375 150.032 70.6662C150.263 70.5925 150.492 70.4931 150.705 70.3732C151.116 70.1418 151.482 69.8351 151.816 69.4913C152.157 69.14 152.466 68.7523 152.704 68.3127L152.923 67.8312L153.09 67.3496C153.16 67.111 153.23 66.8727 153.279 66.6273C153.327 66.3889 153.358 66.1484 153.371 65.905C153.396 65.4194 153.344 64.9335 153.243 64.4604L153.121 63.9788L153.046 63.7381L152.857 63.2568L152.615 62.7786L152.474 62.5436L152.322 62.3151L151.976 61.8844C151.727 61.6082 151.447 61.3643 151.15 61.1496C150.937 60.9952 150.715 60.8568 150.481 60.7424L150.032 60.5597L149.808 60.4923L149.584 60.4381L149.136 60.3584C148.84 60.3105 148.538 60.2919 148.239 60.2987ZM89.2757 60.4947C88.6275 60.6557 88.0069 60.9736 87.4911 61.4252L87.0752 61.8372L86.8833 62.063L86.7048 62.2971L86.3934 62.7752L86.262 63.0158L86.0502 63.4973C85.9625 63.7289 85.8905 63.975 85.8419 64.2196L85.756 64.7011L85.7276 64.9419C85.7085 65.1827 85.6948 65.4223 85.695 65.6642C85.6955 65.9861 85.711 66.3095 85.7623 66.6273C85.802 66.8731 85.8612 67.1139 85.9372 67.3496C86.1854 68.1196 86.6021 68.8279 87.1386 69.4039C87.5027 69.7951 87.924 70.1255 88.3798 70.3826C88.869 70.6588 89.3994 70.8439 89.9482 70.9166C90.1695 70.946 90.3978 70.9583 90.6208 70.9542L91.0692 70.9385L91.2934 70.9166L91.7418 70.8338C92.2119 70.7173 92.6655 70.5138 93.0861 70.2617C93.4661 70.034 93.825 69.7674 94.1349 69.4373L94.4848 69.0126L94.6433 68.7846L94.7911 68.5499L95.0511 68.0717L95.1599 67.8312L95.2527 67.5904L95.3942 67.1088C95.5273 66.5604 95.5565 65.9881 95.5488 65.4235C95.5457 65.1824 95.5385 64.9407 95.5116 64.7011C95.4841 64.4565 95.4401 64.2148 95.3738 63.9788C95.2285 63.4614 94.9915 62.9756 94.7012 62.5352C94.3768 62.043 93.9893 61.5981 93.532 61.2459C93.3244 61.086 93.0971 60.9401 92.8628 60.8296L92.6386 60.7244L92.1902 60.5573L91.7418 60.4465C91.3726 60.3767 90.9948 60.3692 90.6208 60.3692C90.1697 60.3692 89.7169 60.3851 89.2757 60.4947Z" fill="#141416"/>
</g>
<defs>
<linearGradient id="paint0_linear_108_74" x1="47" y1="90" x2="192.941" y2="42.73" gradientUnits="userSpaceOnUse">
<stop stop-color="#88C0D0"/>
<stop offset="0.499076" stop-color="#6D8FB5"/>
<stop offset="1" stop-color="#5E81AC"/>
</linearGradient>
</defs>
</svg>
